<?xml version="1.0" encoding="UTF-8"?>
<svg width="378px" height="378px" viewBox="0 0 378 378" version="1.1" xmlns="http://www.w3.org/2000/svg" xmlns:xlink="http://www.w3.org/1999/xlink">
    <!-- Generator: Sketch 64 (93537) - https://sketch.com -->
    <title>search-icon</title>
    <desc>Created with Sketch.</desc>
    <g id="search-icon" stroke="none" stroke-width="1" fill="none" fill-rule="evenodd">
        <path d="M166.463227,0 C74.6778867,0 0,74.6778867 0,166.463227 C0,258.253734 74.6778867,332.926453 166.463227,332.926453 C258.253734,332.926453 332.926453,258.253734 332.926453,166.463227 C332.926453,74.6778867 258.253734,0 166.463227,0 Z M166.463227,302.195496 C91.6214414,302.195496 30.7316953,241.30575 30.7316953,166.463965 C30.7316953,91.6221797 91.6214414,30.7316953 166.463227,30.7316953 C241.305012,30.7316953 302.194758,91.6214414 302.194758,166.463227 C302.194758,241.305012 241.305012,302.195496 166.463227,302.195496 Z" id="Shape" fill="#000000" fill-rule="nonzero"></path>
        <path d="M373.497961,351.770344 L285.400336,263.672719 C279.397371,257.669754 269.675684,257.669754 263.672719,263.672719 C257.669754,269.670516 257.669754,279.402539 263.672719,285.400336 L351.770344,373.497961 C354.771457,376.499074 358.70059,378 362.634152,378 C366.562547,378 370.496109,376.499074 373.497961,373.497961 C379.500926,367.500164 379.500926,357.768141 373.497961,351.770344 Z" id="Path" fill="#000000" fill-rule="nonzero"></path>
    </g>
</svg>