<?xml version="1.0" encoding="UTF-8"?>
<svg width="28px" height="25px" viewBox="0 0 28 25" version="1.1" xmlns="http://www.w3.org/2000/svg" xmlns:xlink="http://www.w3.org/1999/xlink">
    <!-- Generator: Sketch 64 (93537) - https://sketch.com -->
    <title>Group</title>
    <desc>Created with Sketch.</desc>
    <g id="Page-1" stroke="none" stroke-width="1" fill="none" fill-rule="evenodd">
        <g id="Home" transform="translate(-301.000000, -1012.000000)" fill="#FFFFFF" fill-rule="nonzero">
            <g id="Group" transform="translate(301.000000, 1012.500000)">
                <path d="M8.79791669,16.0002083 L8.79916667,16.0002083 C8.80020832,16.0002083 8.80125003,16 8.80229168,16 L23.3066667,16 C23.66375,16 23.9777083,15.763125 24.0758333,15.4197917 L27.2758333,4.21979168 C27.3447917,3.97833333 27.2964583,3.71874997 27.1454166,3.51833333 C26.9941667,3.31791669 26.7577083,3.2 26.5066667,3.2 L6.95291669,3.2 L6.38104165,0.626458347 C6.29958336,0.26041664 5.975,-9.05941988e-14 5.6,-9.05941988e-14 L0.8,-9.05941988e-14 C0.358125013,-9.05941988e-14 0,0.358125013 0,0.8 C0,1.24187499 0.358125013,1.6 0.8,1.6 L4.95833333,1.6 C5.05958336,2.05604165 7.695,13.915625 7.84666667,14.5979167 C6.99645835,14.9675 6.4,15.8152083 6.4,16.8 C6.4,18.1233333 7.47666667,19.2 8.8,19.2 L23.3066667,19.2 C23.7485417,19.2 24.1066667,18.841875 24.1066667,18.4 C24.1066667,17.958125 23.7485417,17.6 23.3066667,17.6 L8.8,17.6 C8.35895835,17.6 8,17.2410417 8,16.8 C8,16.3595834 8.35770832,16.00125 8.79791669,16.0002083 L8.79791669,16.0002083 Z M25.4460417,4.8 L22.703125,14.4 L9.44166667,14.4 L7.30833333,4.8 L25.4460417,4.8 Z" id="Shape"></path>
                <path d="M8,21.6 C8,22.9233333 9.07666667,24 10.4,24 C11.7233333,24 12.8,22.9233333 12.8,21.6 C12.8,20.2766667 11.7233333,19.2 10.4,19.2 C9.07666667,19.2 8,20.2766667 8,21.6 Z M10.4,20.8 C10.8410417,20.8 11.2,21.1589583 11.2,21.6 C11.2,22.0410417 10.8410417,22.4 10.4,22.4 C9.95895835,22.4 9.6,22.0410417 9.6,21.6 C9.6,21.1589583 9.95895835,20.8 10.4,20.8 Z" id="Shape"></path>
                <path d="M19.3066667,21.6 C19.3066667,22.9233333 20.3833333,24 21.7066667,24 C23.03,24 24.1066667,22.9233333 24.1066667,21.6 C24.1066667,20.2766667 23.03,19.2 21.7066667,19.2 C20.3833333,19.2 19.3066667,20.2766667 19.3066667,21.6 Z M21.7066667,20.8 C22.1477083,20.8 22.5066667,21.1589583 22.5066667,21.6 C22.5066667,22.0410417 22.1477083,22.4 21.7066667,22.4 C21.265625,22.4 20.9066667,22.0410417 20.9066667,21.6 C20.9066667,21.1589583 21.265625,20.8 21.7066667,20.8 Z" id="Shape"></path>
            </g>
        </g>
    </g>
</svg>